<?xml version="1.0" encoding="UTF-8"?>
<svg id="Layer_2" data-name="Layer 2" xmlns="http://www.w3.org/2000/svg" viewBox="0 0 459.53 158.13">
  <g id="Ebene_1" data-name="Ebene 1">
    <g>
      <path d="M459.53,23.1v20.9l-1.52,28.46c-.52,9.7-.79,19.43-.17,29.29.42,6.57-.59,12.8-7.87,15.63-4.5,1.75-10.13,1.35-14.91-1.33l.02-83.72c0-4.15.71-8.91.03-12.71l-3.19-17.82c7.67-1.76,16.48-3.44,23.01,1.24,5.71,4.1,2.08,18,4.61,20.07Z"/>
      <path d="M459.53,146.36v8.93c-.95.5-3.66,1.91-5.02,1.93l-38.9.68c-11.17.2-21.84.58-32.75-.56-8.32-.87-14.37-6.76-14.85-15.05-.91-15.67,2.28-22.74-2.86-36.76,5.73-1.3,12.25-1.82,18.31-.78s9.86,5.98,9.86,11.96l.03,20c0,1.86,1.11,5.21,2.37,6.2,1.11.87,4.19,1.98,5.82,1.96l44-.35c4.96-.04,9.79.45,13.97,1.83Z"/>
      <path d="M188.67,87.29l-.98-60.74-8.03-2.17c-2.29-.62-5.06-2.86-5.96-4.62-1.14-2.24-.92-6.51.54-8.55l87.6.61c4.1.03,8.42,3.12,7.67,6.86-1.23,6.1-7.54,7.93-13.48,7.2l-1.15,61.13c9.09-.04,17.43-1.33,25.38-4.92l.73-43.07c.21-12.56-.61-24.22-2.26-36.99,5.59-1.97,12.23-2.53,18.15-.94,4.83,1.3,7.99,5.02,7.99,10.13l-.02,109.42c0,3.99-2.98,8.73-6.21,10.53-5.35,3-12.55,2.69-17.82-.72l-.24-35.87c-22,10.21-75.41,9.35-100.03,7.75-3.83-.25-8.2-2.4-9.62-4.92-1.95-3.47-1.98-7.91-1.03-11.1l18.75.97ZM232.03,88.49V25.68s-21.42.02-21.42.02l.03,62.84,21.4-.06Z"/>
      <path d="M101.05,131.6c-4.94.27-7.48-1.94-7.5-6.08l-.32-108.28c-.01-4.36-2.54-8.35-3.08-13.2,5.62-.99,11.56-1.52,16.91-.58,6.31,1.11,8.31,7.19,8.29,12.6l-.12,34.08h12.28s-.1-24.08-.1-24.08c-.03-8.18-1.48-15.64-3.15-24.23,6.15-.72,13.52-.66,19.58.27,7.08,6.77,4.54,14.71,4.52,23.17l-.14,94.32c0,6.08-3.05,11.27-9.28,12.78-3.53.86-7.74.38-11.43-.8l-.06-66.29-12.12-.05-.35,53.09c-.05,7.77-6.71,12.89-13.94,13.27Z"/>
      <path d="M333.62,74.84c-1.34-26.22,4-43.63-2.91-66.22,7.18-2.69,27.5-2.39,27.56,8.54l.1,18.33,28.92.04c.07-14.31,2.32-14.34-3.22-27.82,5.8-1.75,12.7-2.17,18.52-.87,6.78,1.52,8.28,6.43,8.42,12.36.43,18.42,1.7,36.27.83,54.58-.43,9.17-5.99,16.03-15.41,16.93-16.28,1.56-32.95,1.67-49.09-.42-8.43-1.09-13.31-7.46-13.72-15.45ZM387.43,75.1l-.02-25.87-29.2.05.32,26.46c9.91,4.06,19.63,4.2,28.9-.64Z"/>
      <path d="M66.64,99.61c-13.38,6.45-28.8,6.29-41.7-.06-11.95-5.88-18.1-17.62-16.52-30.77,1.2-9.97,7.54-17.7,16.84-21.95,15.32-7,33.55-5.5,47.83,3.34,6.54,4.05,9.7,10.28,10.57,17.58,1.59,13.36-4.23,25.69-17.02,31.86ZM56.05,86.01c6.34-6.88,6.15-17.34,1.89-24.65-2.43-4.17-7.03-6.25-11.06-6.4s-8.78,1.35-11.48,4.81c-5.59,7.17-6.01,17.19-.49,24.65,4.64,6.26,15.37,7.85,21.13,1.6Z"/>
      <path d="M18.99,37.12c-6.4.05-11.95,1.8-16.73-3.17-2.64-2.75-2.84-8.6-1.26-11.86l29.56,2.7c1.11.1,3.92-.77,4.37-1.74s.51-3.46.24-4.64l-3.24-14.42c6.29-1.26,11.68-1.79,17.47-.82s9.76,6.01,9.21,11.96l-.82,8.96,28.16.52c3.02,2.45,3.26,10.54-.79,12.01l-66.16.5Z"/>
    </g>
  </g>
</svg>